# xmcd
#
# Track frame offsets: 
#        150
#        15590
#        30675
#        45887
#        59570
#        73622
#        84267
#        99385
#        113215
#        125987
#        137562
#        148952
#        160227
#        176547
#
# Disc length: 2524 seconds
#
# Revision: 2
# Processed by: cddbd v1.5.1PL2 Copyright (c) Steve Scherf et al.
# Submitted via: ExactAudioCopy v0.95b4
#
DISCID=bf09da0e
DTITLE=Ricky Van Shelton - His Very Best
DYEAR=1991
DGENRE=Country
TTITLE0=Crime Of Passion
TTITLE1=Somebody Lied
TTITLE2=Life Turned Her That Way
TTITLE3=I Meant Every Word He Said
TTITLE4=I'll Leave This World Loving You
TTITLE5=From A Jack to A King
TTITLE6=Living Proof
TTITLE7=Statute Of A Fool
TTITLE8=Wild Eyed-Dream
TTITLE9=Don't We All Have The Right
TTITLE10=Hole In My Pocket
TTITLE11=I've Cried My Last Tear From You
TTITLE12=Life's Little Ups And Downs
TTITLE13=Oh Pretty Woman
EXTD=
EXTT0=
EXTT1=
EXTT2=
EXTT3=
EXTT4=
EXTT5=
EXTT6=
EXTT7=
EXTT8=
EXTT9=
EXTT10=
EXTT11=
EXTT12=
EXTT13=
PLAYORDER=
